<svg width="31230" height="2500" viewBox="0 0 31230 2500" fill="none" xmlns="http://www.w3.org/2000/svg">
<path d="M7802 0H0V372.533V745.067L49.7333 745.733C90 746.267 103.067 746.933 119.467 749.2C181.6 757.733 229.733 774 261.334 797.066C274.8 806.8 323.2 855.866 352.134 888.666C420.667 966.933 476.8 1041.6 509.2 1097.87C519.867 1116.13 541.201 1159.07 552.001 1183.33C602.267 1297.07 640.267 1429.07 658.534 1553.33C664.934 1596.8 665.734 1617.2 664.933 1698.67C663.733 1803.07 662.4 1819.6 650 1882.67C645.334 1906.53 636.934 1950 631.333 1979.2C625.733 2008.53 618.267 2046.93 614.533 2064.53C604.4 2114 600.934 2162 600.8 2254C600.667 2317.6 600.8 2318.8 611.6 2350.67C633.334 2415.07 672.533 2458.67 733.333 2486.13C759.334 2497.87 766.534 2499.2 806.667 2499.33C834.667 2499.33 842.667 2498.93 851.867 2496.93C864.001 2494.27 882.001 2487.6 896.401 2480.4C968.401 2444.4 1019.2 2361.87 1035.33 2254.53C1041.87 2211.47 1045.33 2164.13 1046.27 2109.33C1046.93 2066.13 1046.67 2056.93 1044.13 2028C1037.73 1957.07 1030.8 1897.6 1020.67 1828.67C998.934 1680.4 993.467 1628 992.401 1557.33C990.667 1444 1007.47 1272 1031.33 1159.33C1045.07 1094.27 1066.13 1025.87 1085.87 981.333C1120.13 904.399 1175.73 819.066 1222.67 771.199C1283.2 709.466 1368 668.8 1465.33 655.066C1478.13 653.333 1491.2 652.8 1522 652.666C1567.73 652.666 1569.47 652.933 1596.93 665.066C1628.4 679.066 1650.13 695.599 1671.73 722.133C1697.47 753.866 1741.6 845.733 1762.53 911.333C1780 965.6 1794.8 1030.27 1807.33 1105.33C1818.93 1175.33 1841.87 1235.2 1874.67 1281.6C1891.87 1305.87 1921.47 1333.47 1944.93 1347.07C1975.07 1364.53 2000.13 1370.67 2042.13 1370.8C2094.67 1370.8 2136.13 1361.2 2164 1342.27C2176.93 1333.47 2196 1317.07 2208.53 1303.87C2247.73 1262.67 2284.53 1199.07 2348 1062.67C2377.33 999.466 2389.33 975.2 2405.87 945.6C2440.4 883.866 2471.33 842.4 2534.8 773.2C2582.8 720.933 2615.33 695.466 2676 662.666C2720.67 638.533 2755.33 625.199 2794 617.2C2813.47 613.2 2852.27 612.266 2870.8 615.199C2931.33 625.066 2980.67 660.666 3020.13 722.666C3049.33 768.799 3058.67 800.533 3058.67 853.866C3058.67 873.999 3056.27 885.866 3044.67 922.666C3028 975.599 3023.6 1004.53 3028.53 1028.13C3032.67 1047.2 3042.8 1058.53 3065.87 1070C3083.87 1078.8 3102 1083.47 3125.33 1085.33C3151.2 1087.47 3163.2 1085.47 3188.67 1075.07C3221.47 1061.73 3232.13 1052.93 3243.33 1030.4C3253.6 1009.47 3255.2 1001.2 3255.2 968.665C3255.2 938.132 3254.8 933.732 3245.6 877.332C3239.73 840.532 3239.47 838.399 3239.47 809.999C3239.47 783.465 3239.73 778.799 3243.2 759.998C3255.87 690.398 3279.6 626.132 3306 589.065C3339.87 541.332 3372.53 513.998 3405.2 505.598C3418.53 502.265 3500.4 502.265 3524 505.732C3569.2 512.265 3642.53 532.532 3673.07 546.665C3703.07 560.665 3728 579.998 3751.6 607.332C3790.8 652.665 3820.27 707.199 3858.4 805.332C3884.27 871.599 3893.2 900.532 3899.6 936.665C3903.2 957.199 3902.8 1023.33 3898.93 1059.33C3890.13 1140 3874.4 1226.93 3845.2 1354.93C3831.33 1416.13 3827.6 1446.53 3827.6 1500.67C3827.6 1544.4 3830 1557.2 3843.73 1583.33C3866.53 1626.67 3906 1656.8 3952 1666.13C3972.93 1670.4 4005.33 1665.6 4030 1654.53C4050.13 1645.6 4090.27 1610.93 4105.6 1589.33C4117.87 1572 4131.2 1539.6 4134.67 1518.4C4138.4 1495.46 4137.47 1418.8 4132.67 1364.8C4131.6 1352.8 4128.67 1329.07 4126.13 1312.4C4123.47 1295.73 4119.87 1269.73 4118 1254.66C4116.13 1239.6 4112.13 1210.26 4109.2 1189.33C4102.4 1141.06 4100.27 1113.2 4098.67 1049.33C4096 947.198 4100.94 882.665 4114.8 841.198C4122.8 816.931 4134.27 801.598 4150 793.865C4157.73 790.131 4158.67 789.998 4176.67 790.131C4198 790.131 4201.47 791.065 4246.53 807.198C4312.13 830.931 4404.13 852.798 4463.34 858.665C4502.67 862.665 4573.87 862.398 4620.67 857.998C4682.54 852.398 4715.47 845.598 4791.6 823.198C4824.4 813.598 4890.94 791.331 4912 782.931C4966.94 761.065 5033.07 740.931 5083.33 730.531C5101.73 726.798 5107.47 726.131 5124.67 726.131C5140.54 725.998 5146.27 726.531 5152.67 728.398C5177.07 735.998 5200.27 753.331 5218.4 777.731C5228.4 791.065 5234.13 800.531 5254 835.998C5280.8 883.598 5295.87 906.664 5314.14 927.998C5344.14 962.798 5375.6 979.865 5428 989.598C5446.53 993.064 5480.67 993.731 5495.34 990.798C5534.8 983.198 5570.27 963.598 5625.6 918.931C5658.53 892.398 5696.54 869.998 5715.2 866.131C5771.6 854.265 5832.27 875.331 5859.47 916.264C5889.34 961.064 5890.94 1007.06 5868.67 1170C5866.14 1188.26 5862.27 1218 5860 1236C5857.73 1254 5852.67 1291.46 5848.67 1319.33C5840 1380.13 5837.34 1413.86 5837.34 1461.2C5837.34 1519.6 5841.34 1542.8 5855.74 1568.8C5876.54 1606.53 5903.07 1629.6 5938 1640.8C5969.87 1650.93 6032.14 1652.26 6060 1643.46C6091.74 1633.46 6122.67 1617.33 6145.34 1599.06C6192.67 1560.93 6223.47 1498.93 6234 1420.66C6237.47 1395.6 6238 1338.4 6235.34 1282C6232.54 1221.46 6231.07 1037.6 6233.07 1004.66C6234.8 977.865 6236.67 968.265 6244.94 943.331C6266.94 876.398 6289.34 839.998 6333.2 799.465C6367.6 767.731 6393.6 755.998 6446.4 748.798C6473.2 745.064 6481.6 745.731 6540.67 755.998C6561.2 759.464 6591.87 764.665 6608.8 767.198C6652 773.998 6674.67 779.864 6706 792.264C6786.13 824.131 6857.07 874.131 6896.27 926.264C6919.87 957.598 6932.13 985.598 6941.2 1028.26C6946.13 1052 6947.47 1072.66 6945.47 1094.66C6938.27 1170.26 6926.14 1274.66 6900 1484C6870.94 1717.6 6868.8 1740.8 6874.14 1771.33C6879.47 1802.4 6891.87 1827.86 6910.67 1846.66C6922.67 1858.66 6931.47 1864.53 6946.27 1870.53C6962.14 1877.06 6968.27 1878 6992.67 1878C7017.6 1877.86 7025.74 1876.4 7040.94 1869.2C7065.2 1857.73 7090.27 1827.06 7103.87 1792.53C7110 1776.66 7117.6 1743.86 7120.8 1718.66C7124 1693.2 7125.6 1597.6 7124 1525.2C7122.67 1459.06 7122.4 1455.86 7116 1382C7101.74 1219.06 7098.27 1171.46 7097.74 1129.6C7096.54 1056.53 7102.8 993.731 7116 945.331C7136.4 870.531 7195.2 751.731 7242.4 690.264C7274.54 648.264 7322.94 606.398 7351.2 596.131C7359.87 592.931 7362.4 592.664 7381.34 592.798C7396.14 592.798 7405.2 593.464 7413.34 595.198C7448.14 602.665 7505.34 626.264 7553.34 652.931C7612.4 685.731 7663.47 708.931 7710 723.998C7751.2 737.331 7775.6 740.931 7843.34 743.331C7925.34 746.398 7977.47 753.598 8022.67 768.265C8038.27 773.198 8064.54 785.865 8075.6 793.598C8123.47 827.065 8250.8 975.998 8309.6 1067.33C8386.27 1186.4 8452.54 1379.6 8478.54 1560C8484.4 1600.13 8486 1649.86 8484 1724.53C8481.74 1809.86 8480.54 1823.2 8469.34 1880.66C8464.94 1902.66 8457.2 1942.93 8452 1970.27C8446.8 1997.6 8439.07 2037.6 8434.67 2059.33C8425.87 2102.4 8424 2118.8 8421.2 2175.33C8418.94 2222.4 8418.94 2303.47 8421.2 2316C8425.07 2337.73 8437.34 2372.53 8448.8 2394.67C8469.6 2435.07 8528 2481.07 8576 2494.8C8596.8 2500.8 8652 2501.6 8674.14 2496.13C8722.27 2484.27 8768.54 2450.27 8799.6 2403.87C8823.2 2368.8 8841.74 2322.13 8850.54 2276C8859.87 2226.93 8865.6 2158.27 8865.74 2094.67C8865.87 2060.13 8865.34 2048.27 8862.27 2016.67C8854.4 1935.2 8849.6 1896.8 8834.14 1790C8814.54 1654.8 8809.87 1600.27 8811.07 1525.33C8813.2 1396 8834.14 1220.4 8859.47 1119.33C8872.4 1067.73 8891.34 1011.33 8907.87 974.799C8934 917.199 8975.07 850.399 9014.94 800.933C9030.94 780.932 9062.27 750.266 9080 737.066C9135.2 696.266 9198 669.732 9267.2 657.999C9297.2 652.932 9316.67 651.599 9351.47 652.266C9383.07 652.933 9383.47 652.933 9396 657.199C9412.67 662.8 9438.14 675.333 9451.07 684.266C9472.27 698.933 9493.2 722.8 9511.34 752.666C9527.87 779.999 9556.4 841.6 9572.67 885.066C9590.8 933.599 9609.87 1010.27 9623.47 1088.67C9635.6 1158.8 9646.8 1196.53 9668.14 1238.93C9694.4 1291.47 9732.14 1331.6 9775.34 1353.07C9801.87 1366.27 9822.94 1370.67 9860.14 1370.8C9913.6 1370.93 9954.27 1361.47 9982.14 1342.67C10044.8 1300.13 10084 1240.8 10166.4 1063.73C10234.4 917.866 10264.5 870.8 10348.8 778.666C10405.2 716.933 10442.4 688.8 10514.3 652.8C10570 624.933 10612.3 613.333 10658.7 613.2C10732.1 613.066 10792.4 649.466 10839.2 722.666C10850.3 740 10862.7 764.133 10867.1 777.333C10874 797.733 10877.5 823.333 10877.5 853.733C10877.5 876.133 10876 883.2 10863.3 923.733C10839.7 998.666 10839.7 1033.73 10863.2 1055.73C10883.5 1074.67 10918.4 1085.6 10958.7 1085.6C10976.9 1085.73 10978.8 1085.47 10990.7 1081.47C11007.1 1076 11026.5 1067.47 11036.7 1061.33C11046.4 1055.33 11055.1 1045.07 11062.4 1030.4C11071.2 1012.93 11073.6 1001.87 11074.3 974.667C11075.1 947.067 11073.5 930.667 11064.4 874.667C11058.5 838.8 11058.1 835.2 11058.1 810C11058 786.667 11058.5 780.8 11061.7 762.4C11069.2 719.734 11084.1 669.6 11100 633.867C11110 611.2 11116.3 600.534 11130.1 582C11162.5 538.4 11191.3 514.8 11222 506.267C11229.9 504.133 11237.2 503.6 11268.9 503.066C11334.7 501.866 11372.5 507.6 11442.7 529.2C11473.7 538.8 11483.2 542.266 11497.7 549.466C11567.7 584.533 11618.3 655.2 11672.9 793.999C11711.1 890.8 11719.2 921.066 11721.2 971.999C11724.1 1049.87 11706.4 1169.87 11665.2 1350.67C11654.1 1399.07 11651.2 1416.13 11648.7 1447.6C11646.4 1475.47 11646.1 1524 11648.1 1540C11653.6 1584.4 11689.3 1631.47 11734 1653.47C11766.1 1669.2 11790.8 1671.47 11827.6 1661.87C11850.1 1656 11862.1 1649.07 11888.9 1626.4C11921.1 1599.2 11937.5 1575.07 11948.7 1538C11954.4 1519.07 11956 1503.2 11956 1466.67C11956 1412.53 11952.3 1358.67 11945.3 1314C11943.2 1300.13 11939.3 1272.4 11936.8 1252.67C11934.1 1232.8 11930 1201.6 11927.5 1183.33C11919.7 1128.4 11917.3 1085.2 11917.3 1003.33C11917.3 944.799 11918.4 922.799 11922.8 891.599C11929.6 842.799 11941.5 813.465 11960 799.599C11971.1 791.199 11980.9 788.799 11999.6 789.599C12015.9 790.399 12028.8 793.866 12066.9 807.732C12129.7 830.666 12221.3 852.266 12282 858.666C12303.3 860.932 12357.7 862.132 12389.9 861.066C12436.4 859.466 12485.6 854.132 12522 846.532C12574.7 835.732 12672.9 805.199 12747.3 776.799C12795.9 758.265 12861.1 738.799 12902.5 730.532C12938.8 723.332 12961.5 723.865 12982.4 732.399C12994 737.065 13011.3 749.065 13022.4 760.399C13036 773.999 13046.1 788.665 13066 823.732C13088.4 863.198 13106.1 892.399 13117.1 907.999C13128.1 923.465 13150.4 946.799 13163.5 956.799C13182.4 971.065 13207.7 981.465 13238.3 987.865C13312.8 1003.33 13361.9 986.665 13447.2 916.932C13469.2 899.065 13499.3 879.598 13518 871.332C13540 861.598 13577.1 860.265 13607.6 868.132C13613.1 869.465 13623.3 873.332 13630.3 876.665C13657.5 889.465 13673.9 905.465 13686.5 931.065C13690.9 939.998 13695.9 951.865 13697.3 957.332C13706.1 990.398 13704.3 1048.4 13691.3 1143.33C13689.5 1156.53 13685.6 1185.86 13682.7 1208.66C13679.7 1231.33 13673.5 1277.87 13668.7 1312C13658.7 1383.86 13657.5 1396.4 13656.4 1443.33C13655.1 1498.53 13658.7 1532.66 13668 1554.93C13687.5 1601.87 13726.5 1634.8 13776.8 1646.8C13790.7 1650 13817.1 1651.73 13834.7 1650.4C13868.5 1647.86 13911.5 1634 13940.7 1616C13974.4 1595.33 14003.7 1562.93 14022.4 1525.86C14034.8 1501.2 14046.9 1460.8 14052.1 1427.33C14056.1 1400.4 14056.9 1339.46 14054 1272.66C14051.2 1208.13 14049.9 1046.4 14051.9 1010.66C14053.6 978.265 14055.3 968.798 14065.2 939.732C14086.8 876.132 14106.1 844.131 14146.1 805.332C14184.1 768.665 14210.9 755.865 14265.9 748.665C14293.9 745.065 14298.4 745.332 14364 756.798C14387.1 760.798 14417.9 765.731 14432.5 767.998C14447.1 770.131 14466 773.731 14474.5 775.864C14536.5 791.598 14607.5 827.598 14660.7 870.531C14674.1 881.331 14698.9 905.731 14708.4 917.331C14726 939.198 14741.1 964.798 14748.5 985.998C14762.4 1025.46 14767.6 1062.26 14764.1 1098.66C14758.3 1160.93 14745.1 1274.53 14724.1 1444.66C14716.7 1504 14708.9 1568.53 14706.7 1588C14704.4 1607.46 14701.2 1635.06 14699.3 1649.33C14694 1691.86 14693.5 1696.93 14692.1 1720.8C14688.7 1781.73 14699.6 1818 14729.9 1846.26C14741.2 1857.06 14748.3 1861.73 14763.5 1868.93C14781.2 1877.33 14797.2 1880.53 14817.3 1879.6C14834.8 1878.8 14844.5 1876.53 14858.3 1870C14880.1 1859.73 14896.4 1842.93 14912.4 1814C14922.7 1795.6 14929.2 1775.46 14936 1741.86C14942.1 1711.06 14943.2 1687.46 14943.2 1584C14943.1 1484.13 14942.4 1466.26 14935.3 1386C14922.8 1242.13 14917.1 1166.53 14916.4 1132.66C14914.9 1063.06 14922.1 991.864 14935.5 943.331C14957.2 864.664 15019.2 742.531 15068.4 681.331C15087.5 657.731 15123.9 623.731 15146.8 608.264C15166.1 595.198 15181.3 591.197 15206.7 592.397C15233.1 593.731 15259.5 600.797 15297.3 616.797C15323.9 627.864 15345.7 638.264 15362.7 647.731C15397.3 667.197 15402.9 670.131 15422.7 679.997C15475.5 706.397 15532.4 726.797 15580.4 736.664C15600.3 740.664 15636.4 744.531 15637.1 742.531C15637.7 740.931 15665.9 740.931 15690.4 742.664C15760.1 747.597 15823.1 765.197 15859.6 789.864C15905.7 821.064 16036.8 974.131 16094.7 1064.4C16150.3 1151.2 16202.1 1280.8 16236 1417.33C16248.5 1467.73 16262 1541.06 16266.7 1583.33C16268.9 1604.4 16269.9 1698.53 16268.1 1744.66C16265.6 1814.13 16264.5 1823.6 16254 1877.33C16250 1897.46 16241.9 1939.46 16236 1970.66C16230 2001.86 16222.3 2041.73 16218.7 2059.33C16215.1 2076.93 16211.5 2096.4 16210.8 2102.66C16204.5 2156.4 16201.5 2285.2 16205.9 2312.66C16210.1 2338.53 16226.4 2380 16241.9 2404C16264.5 2439.06 16299.9 2467.33 16344 2486C16363.2 2494.13 16367.6 2494.8 16402.7 2495.6C16440.4 2496.4 16453.6 2495.2 16470.5 2489.33C16536.4 2466.8 16585.1 2416.93 16615.1 2341.33C16631.1 2301.06 16639.2 2262 16645.2 2196.66C16655.7 2083.2 16651.7 2016.93 16621.3 1804C16598.1 1642.13 16592.9 1580 16596 1500.26C16601.7 1347.33 16624.8 1177.46 16652.8 1082.66C16671.2 1020.8 16687.9 978.13 16711.1 933.997C16753.3 853.597 16805.9 782.397 16850.3 745.197C16901.1 702.53 16970.1 670.397 17039.7 656.797C17072.9 650.264 17088.9 648.797 17127.3 648.797C17168.7 648.663 17172.1 649.33 17199.7 661.463C17252.7 684.93 17280.3 714.797 17316 787.33C17349.3 854.797 17366.4 901.33 17384.4 972.663C17394.4 1012 17400.1 1039.6 17408 1084.53C17411.6 1105.06 17416 1128.53 17417.9 1136.66C17448.1 1269.86 17524.1 1357.06 17618.5 1366.53C17645.1 1369.33 17682 1367.46 17708.7 1362C17723.3 1359.06 17745.2 1351.6 17755.9 1346C17780.4 1333.06 17812.8 1303.2 17836.9 1271.33C17866.5 1232 17902.7 1165.06 17955.3 1051.46C17997.1 961.33 18019.3 920.663 18052.7 873.197C18088.1 823.064 18157.5 745.463 18194 715.33C18238.7 678.53 18314.1 637.463 18365.3 621.997C18436.9 600.263 18499.5 607.197 18551.9 642.397C18581.3 662.264 18607.5 691.597 18630.8 730.797C18651.6 765.864 18658 786.53 18661.5 828.13C18664.1 860.397 18662 876.13 18649.3 915.997C18635.3 960.264 18632 975.73 18631.1 999.997C18630 1026.93 18633.7 1038.8 18646.9 1051.46C18667.7 1071.6 18707.7 1083.73 18748 1082.4C18766.7 1081.73 18776.1 1079.06 18802.7 1067.33C18828.3 1056 18836.3 1048.66 18847.3 1026C18856.8 1006.66 18859.2 994.664 18859.2 965.33C18859.2 937.73 18858.4 929.997 18850 876.664C18841.9 824.93 18840.4 807.864 18842.5 788.264C18846.3 753.064 18856 709.73 18868.4 672.664C18886 620.397 18900.3 594.397 18931.7 557.464C18956.7 528.13 18981.9 509.597 19005.6 503.197C19017.5 499.997 19049.3 498.263 19078.7 499.197C19125.2 500.53 19156.7 505.597 19205.3 519.33C19279.9 540.397 19305.9 553.863 19342.7 590.663C19383.7 631.597 19416.7 688.13 19453.6 780.663C19499.7 896.263 19508.1 931.197 19506.1 999.33C19503.9 1078.4 19485.7 1189.86 19448.8 1352.4C19444 1373.06 19439.3 1395.73 19438.1 1402.66C19432.3 1438.66 19429.1 1501.2 19431.9 1528.66C19433.7 1548.13 19436.1 1556.53 19444.5 1574C19464.7 1615.6 19498.1 1645.33 19540 1658.8C19573.3 1669.46 19619.3 1662.53 19649.3 1642.26C19669.6 1628.53 19700.1 1599.46 19710.8 1583.73C19719.3 1571.2 19728.8 1550.26 19734.1 1532C19738.7 1516.4 19738.9 1513.73 19739.9 1489.33C19740.9 1462.13 19739.7 1404.4 19737.3 1374.26C19735.5 1349.46 19733.7 1335.06 19729.3 1306C19727.2 1292 19722.9 1261.86 19720 1238.93C19717.1 1215.86 19713.2 1187.06 19711.3 1174.93C19705.2 1132 19703.1 1098.4 19701.9 1024.66C19700.3 933.33 19704.9 880.53 19718.1 839.197C19731.1 798.263 19753.5 781.73 19789.7 786.397C19803.9 788.13 19817.5 792.13 19852 804.53C19900.9 822.263 19983.1 843.197 20034 851.197C20109.1 862.797 20226.8 859.73 20302.7 844.13C20349.6 834.397 20446 805.73 20502.1 784.53C20512.7 780.53 20530.1 773.997 20541.1 769.863C20601.1 747.33 20682.9 725.463 20717.6 722.796C20755.6 719.863 20782.4 730.797 20810.8 761.063C20823.2 774.13 20831.9 787.063 20850.1 819.33C20887.3 885.196 20904.1 910.53 20925.3 932.53C20951.1 959.196 20974.4 972.53 21011.7 981.863C21033.6 987.33 21050.3 989.463 21069.3 989.596C21120.3 989.596 21158.8 971.996 21227.3 917.196C21260.8 890.53 21296.9 868.396 21316 863.196C21323.1 861.196 21329.6 860.796 21351.3 860.796C21375.9 860.796 21379.1 861.063 21390.8 864.263C21438.8 877.33 21470 908.796 21482.8 957.196C21490.5 987.063 21488.4 1049.33 21476.7 1135.33C21474.8 1148.53 21470.7 1180 21467.3 1205.33C21464 1230.66 21457.7 1277.06 21453.2 1308.66C21443.5 1378 21441.2 1406.26 21441.1 1456C21440.9 1516.13 21444.7 1538.66 21459.6 1565.6C21479.2 1601.33 21505.2 1624.93 21536.7 1635.73C21562.3 1644.4 21595.9 1647.86 21630.5 1645.33C21652 1643.86 21663.1 1641.06 21686.3 1631.6C21719.2 1618 21740.1 1604.93 21761.9 1584.13C21789.7 1557.2 21808.4 1526.4 21822.5 1483.33C21839.7 1431.06 21843.7 1385.2 21839.5 1286.66C21835.7 1197.46 21834.3 1098.4 21835.9 1038.66C21837.5 977.063 21838.1 972.129 21848.3 941.463C21869.3 876.663 21889.9 841.863 21929.7 803.063C21964.1 769.596 21986.4 757.463 22030 748.663C22042.9 745.996 22052.9 744.929 22069.3 744.396C22093.6 743.729 22092.9 743.596 22156 754.529C22176.9 758.129 22204.5 762.663 22217.3 764.663C22267.3 772.263 22304.7 784.263 22353.1 808.529C22443.9 853.996 22506.7 914.129 22532.1 979.863C22539.6 999.196 22547.1 1030.66 22549.3 1052.66C22552.1 1079.46 22543.3 1161.86 22505.3 1467.33C22478.3 1684.66 22477.5 1692.53 22476.4 1729.33C22475.7 1754.93 22476 1759.33 22478.5 1771.33C22483.9 1797.2 22491.2 1814.66 22504.3 1832.26C22518.1 1851.06 22540.4 1865.73 22564.7 1872.13C22580 1876.26 22612.1 1876.26 22627.1 1872.26C22652.9 1865.2 22670.7 1851.33 22689.3 1823.46C22704.3 1801.06 22712.9 1778 22720.5 1739.33C22726.3 1710.53 22726.9 1698.13 22727.6 1605.6C22728.3 1515.06 22727.1 1463.6 22723.2 1420C22720.7 1391.33 22709.1 1253.06 22704.5 1196.66C22696.4 1096.66 22702.3 1003.6 22720.8 937.862C22741.5 863.995 22800.1 746.929 22847.1 685.462C22852.9 677.729 22868 661.062 22880.5 648.529C22914.1 615.063 22941.9 595.329 22962.1 590.662C22979.9 586.662 23010.3 589.329 23038.1 597.329C23064.1 604.796 23114.9 626.529 23144.7 642.929C23221.9 685.329 23270.1 707.329 23319.7 722.529C23358.4 734.395 23373.7 736.529 23447.3 739.996C23503.1 742.662 23516.4 743.596 23544.7 747.196C23602 754.396 23650.4 769.996 23679.5 790.529C23727.2 824.129 23853.7 971.862 23911.7 1061.6C23992.1 1185.86 24061.5 1391.6 24084.8 1574.66C24089.2 1609.33 24088.7 1748.53 24083.9 1807.33C24082.1 1829.86 24081.1 1836 24070.7 1889.33C24065.6 1915.33 24056.7 1961.6 24050.8 1992C24044.9 2022.4 24038 2057.73 24035.5 2070.26C24027.2 2110.13 24023.6 2164.66 24023.5 2250.66C24023.3 2312.93 24023.3 2313.06 24032.3 2341.33C24046.1 2385.06 24058.7 2407.06 24083.9 2432C24106.3 2454.13 24130.3 2470.8 24157.1 2482.8C24182.3 2494 24186.9 2494.8 24222.7 2495.6C24258.9 2496.4 24272.1 2495.2 24289.6 2489.33C24354.9 2467.46 24404 2417.06 24434.7 2340.13C24448.5 2305.06 24456.8 2268.53 24462.7 2214.66C24469.1 2155.46 24471.2 2074.53 24467.5 2032C24460.3 1950.93 24455.2 1908.8 24440.7 1807.33C24413.5 1617.06 24410 1561.19 24418 1443.59C24433.9 1208.13 24468.3 1051.46 24529.2 935.328C24565.3 866.662 24608.4 804.928 24648 765.195C24671.9 741.195 24696.1 722.795 24727.3 705.062C24775.5 677.595 24833.2 658.795 24892 651.329C24913.7 648.529 24961.1 647.329 24976.9 649.062C24991.3 650.795 25008.9 656.395 25027.5 665.329C25073.2 687.462 25101.6 719.195 25134 784.929C25180.1 878.129 25205.5 960.262 25227.5 1087.2C25230.7 1106.26 25234.7 1127.2 25236.1 1133.86C25259.2 1237.86 25311.2 1316.4 25378.7 1349.46C25408.8 1364.26 25435.5 1369.2 25476.7 1367.6C25525.3 1365.6 25560.5 1356.26 25587.3 1338.26C25604.8 1326.53 25624.5 1308.93 25638.5 1292.66C25677.6 1247.2 25710.8 1188.4 25773.7 1052.53C25835.7 919.062 25870.1 865.329 25949.2 778.662C25999.9 723.062 26029.7 698.262 26082.7 668.129C26178 613.595 26254.5 597.462 26320.5 618.129C26376.8 635.729 26423.6 679.462 26458.8 747.329C26474.4 777.329 26479.5 799.329 26480.9 841.329C26481.7 869.328 26480.4 877.595 26468.1 916.662C26454.4 960.662 26450.9 976.395 26449.7 998.662C26448 1034.26 26458 1051.86 26488.5 1066.66C26510 1077.19 26535.5 1082.66 26562.4 1082.66C26584 1082.66 26599.7 1078.13 26630.1 1063.19C26647.1 1054.93 26653.5 1049.19 26662.4 1033.86C26674.9 1012.39 26678 998.128 26677.9 962.662C26677.9 933.995 26677.2 928.128 26668.3 873.995C26662.4 837.595 26662.1 835.862 26662.1 806.662C26662.1 781.062 26662.5 774.128 26665.1 759.995C26675.5 702.928 26696.9 637.728 26716.3 604.662C26733.7 574.795 26763.9 539.862 26787.2 522.395C26798.7 513.862 26813.9 505.995 26824.4 503.195C26841.7 498.528 26903.2 497.595 26936.7 501.328C26988.5 507.195 27064.5 528.128 27102 546.661C27124 557.728 27140.3 569.595 27160.8 589.995C27204.5 633.462 27236.4 688.928 27277.7 793.462C27319.1 897.995 27326.7 930.795 27324.9 999.328C27322.9 1077.19 27304.3 1192.8 27268.7 1347.99C27264.5 1365.99 27260 1386.66 27258.7 1393.99C27249.5 1441.99 27247.1 1523.46 27254 1549.99C27262.3 1581.59 27290.3 1620.39 27318.3 1638.93C27342.3 1655.06 27368.8 1663.99 27392 1663.99C27411.3 1663.99 27435.2 1658.93 27452.5 1651.33C27475.2 1641.33 27519.7 1600.93 27533.6 1577.86C27541.2 1565.33 27548.9 1546.79 27553.9 1529.46C27559.5 1509.99 27560.9 1481.06 27558.9 1426.93C27557.5 1388.79 27554.7 1347.73 27552.7 1335.33C27549.5 1315.73 27543.2 1272.13 27540 1245.99C27537.7 1228.39 27533.7 1199.33 27531.2 1181.46C27525.2 1138.93 27522.9 1108.93 27521.3 1048C27518 927.995 27525.1 859.328 27545.1 819.328C27551.5 806.395 27564.7 793.462 27575.3 789.462C27596.5 781.462 27615.3 784.395 27670.7 804.528C27717.6 821.595 27798.4 842.395 27850 850.662C27919.5 861.862 28012.9 860.795 28099.5 848.128C28154 839.995 28253.1 810.528 28354.4 772.128C28419.6 747.328 28498.8 725.862 28536 722.928C28565.1 720.528 28582.5 724.662 28604.8 739.329C28628.8 755.328 28643.6 774.129 28673.7 827.595C28709.2 890.129 28724.9 913.195 28747.2 935.462C28772 960.128 28789.5 970.262 28824 980.129C28846.7 986.529 28867.5 989.595 28888.7 989.462C28940.5 989.462 28978.8 971.462 29051.3 913.329C29075.3 894.129 29101.7 877.062 29121.6 868.128C29126.5 865.862 29135.7 863.062 29142.1 861.995C29155.6 859.728 29181.3 859.328 29195.1 861.462C29226.5 866.128 29258 882.662 29275.3 903.729C29288.3 919.329 29300.8 947.328 29304 967.995C29309.5 1003.2 29306.1 1058 29292.7 1157.33C29289.3 1181.19 29284.9 1215.06 29282.7 1232.66C29280.4 1250.26 29275.3 1287.73 29271.3 1315.99C29262.5 1377.86 29260 1409.19 29260 1456.26C29260 1513.86 29263.5 1536.53 29276.1 1561.73C29292.9 1594.79 29323.5 1622.93 29356.7 1635.86C29398.7 1652.26 29445.6 1651.73 29496.5 1634.53C29546.8 1617.46 29584.1 1588.79 29612.7 1545.33C29622.9 1529.59 29629.1 1517.59 29635.9 1499.73C29646.1 1472.66 29652.5 1447.19 29656.7 1417.33C29660 1392.79 29660.7 1335.06 29658 1279.33C29655.2 1219.73 29653.7 1030.66 29655.7 999.995C29657.5 973.994 29659.7 963.461 29668.9 935.995C29689.3 875.461 29711.2 838.795 29748.1 803.461C29781.3 771.728 29800.9 760.128 29836 751.595C29878 741.328 29900.9 741.461 29963.3 752.528C29986.8 756.661 30019.5 762.128 30036 764.661C30089.5 773.061 30126.8 785.195 30175.7 810.261C30262.1 854.528 30325.6 914.795 30349.2 975.061C30365.1 1015.73 30371.5 1055.06 30368.1 1092.13C30363.1 1146.66 30346.1 1293.46 30327.3 1443.99C30322.7 1481.73 30315.5 1540.79 30311.5 1575.33C30307.3 1609.73 30302.5 1649.73 30300.7 1664.13C30290.7 1743.46 30293.7 1784.93 30312 1815.99C30321.5 1832.13 30334.9 1846.39 30350.7 1856.93C30383.7 1879.19 30430.4 1882.79 30464.7 1865.59C30494.3 1850.79 30520.4 1813.59 30532.5 1768.93C30537.2 1751.59 30542.3 1726.79 30543.9 1712.53C30546.7 1688.79 30548.1 1589.46 30546.7 1522.79C30545.3 1459.46 30544.5 1444.26 30538 1371.33C30525.1 1224.39 30521.1 1168.26 30520.4 1127.06C30519.1 1051.73 30525.5 989.061 30539.3 939.328C30554.5 884.794 30590.3 805.861 30628.4 741.994C30653.9 699.327 30670.4 677.461 30698 649.861C30727.7 620.128 30756 598.794 30773.6 592.794C30789.9 587.328 30814.9 587.461 30840.8 593.194C30875.5 600.794 30930.3 623.861 30977.5 650.661C31062.8 699.194 31147.5 730.394 31214.7 737.994C31220 738.569 31225.3 739.105 31229.3 739.477V0H7802ZM23792.1 774C23795.5 773.2 23796.1 773.6 23797.3 776.533C23798.1 778.933 23799.6 780 23801.7 780C23808.3 780 23830.3 796.8 23865.3 828.8C23886 847.6 23974.3 936.666 23986.7 951.333C23993.5 959.2 23995.1 960.133 23994 955.466C23993.6 953.6 23993.1 950.533 23992.7 948.8C23992.3 947.066 23990.8 945.333 23989.3 944.933C23987.5 944.533 23986.7 943.2 23986.7 940.8C23986.7 936.8 23989.3 936.266 23994.7 939.333C23996.5 940.399 23999.7 941.199 24001.9 941.333C24007.9 941.333 24020 955.866 24018.1 960.666C24017.9 961.6 24019.3 964.133 24021.6 966.133C24026.9 971.2 24036.1 983.2 24040.1 990.4C24042.7 994.8 24042.9 996.266 24041.6 997.2C24040.3 998 24041.1 999.6 24044.5 1003.87C24049.2 1009.47 24049.9 1010.67 24049.5 1014.67C24049.3 1015.73 24051.1 1017.6 24053.2 1018.93C24056.4 1020.67 24057.3 1022.27 24058.1 1027.6C24059.2 1034.67 24062.1 1043.6 24067.1 1054.67C24068.8 1058.67 24071.3 1066.53 24072.7 1072C24074 1077.47 24076.8 1085.87 24078.8 1090.53C24083.3 1100.67 24083.3 1100.4 24080 1099.33C24076.1 1098.13 24076.7 1100 24082.8 1108.53C24088.5 1116.67 24088.8 1118.67 24083.5 1116.27C24080.3 1114.8 24080.4 1115.07 24084.7 1122.4C24091.3 1133.6 24101.3 1164.93 24112.7 1210C24127.1 1267.33 24130.3 1284.4 24134 1325.33C24135.1 1337.47 24137.2 1353.87 24138.5 1362C24140 1370 24142.7 1388.67 24144.7 1403.33C24146.7 1418 24149.3 1435.73 24150.7 1442.67C24152.1 1449.6 24154.1 1464.93 24155.3 1476.67C24156.5 1488.4 24158 1503.33 24158.7 1510C24163.3 1556.8 24164.9 1678.93 24161.6 1717.33C24159.7 1737.2 24152.8 1799.6 24148 1838.67C24144.4 1867.07 24139.2 1899.33 24136 1912.13C24134.5 1917.6 24131.6 1935.07 24129.3 1950.8C24127.1 1966.53 24123.5 1989.87 24121.3 2002.67C24114 2047.2 24109.3 2086.27 24109.3 2104.8C24109.3 2113.87 24110.5 2120.93 24115.9 2141.73C24128.1 2189.47 24157.2 2284.27 24170 2318C24181.7 2348.93 24184.8 2371.2 24179.1 2382.13C24175.6 2388.8 24161.2 2402.27 24156.4 2403.47C24154.4 2404 24150.3 2403.73 24147.1 2402.93C24143.9 2402 24138.9 2401.33 24136 2401.33C24131.6 2401.33 24130.7 2400.93 24130.7 2398.67C24130.7 2396.67 24129.7 2396 24126.9 2396C24119.5 2396 24098.3 2379.2 24096.7 2372C24096.3 2369.87 24094.9 2367.33 24093.7 2366.4C24083.9 2358.27 24066.8 2324.53 24058.1 2295.73C24055.1 2285.73 24054.5 2280.4 24053.3 2254.4C24051.9 2224.13 24053.1 2188.27 24055.7 2181.33C24056.5 2179.47 24058.4 2171.33 24060 2163.33C24061.6 2155.2 24064.9 2140.8 24067.5 2131.33C24073.3 2108.93 24079.3 2078.67 24098 1979.33C24106.4 1934.53 24115.6 1885.73 24118.5 1870.67C24133.5 1793.6 24139.9 1708.93 24138.3 1606C24137.2 1544.8 24136.1 1531.73 24126.5 1471.47C24116.8 1409.87 24109.1 1371.33 24100.5 1341.33C24097.9 1332.13 24092.8 1312.93 24089.3 1298.67C24085.7 1284.4 24079.9 1263.33 24076.1 1252C24072.5 1240.67 24068.3 1226.8 24066.7 1221.33C24056.4 1186.4 24014.9 1095.73 23986.9 1047.47C23965.6 1010.53 23922.7 947.333 23890.8 906C23863.6 870.666 23803.6 797.066 23793.1 785.866C23784.9 777.333 23782.7 774.266 23782.7 771.199L23782.8 767.333L23785.6 771.066C23787.9 774.133 23788.9 774.666 23792.1 773.999V774ZM15967.3 772C15968.9 773.733 15971.1 774.533 15973.9 774.266C15977.2 774 15978.1 774.533 15978.4 776.933C15978.8 779.333 15979.7 780 15982.5 780C15990.9 780 16022.9 805.867 16070.9 851.467C16090.5 870.133 16098.7 878.533 16142.4 925.067C16164.4 948.533 16175.5 956.8 16174.4 948.933C16174.1 947.2 16173.1 946 16171.7 946C16168.1 946 16167.7 944.533 16170 940.133C16172.4 935.467 16174 934.933 16175.9 938.267C16176.7 939.866 16178.8 940.533 16182.1 940.667C16186.7 940.667 16187.5 941.2 16190.7 946.667C16192.9 950.533 16195.2 952.8 16197.2 953.066C16199.9 953.466 16200.1 954 16199.3 958.933C16198.4 963.866 16198.5 964.266 16200.8 963.333C16207.7 960.533 16208.3 960.666 16207.3 965.466C16206.1 971.866 16211.1 979.2 16216.9 979.733C16219.6 980 16221.3 981.066 16221.7 982.533C16222.5 985.733 16220.4 989.333 16217.7 989.333C16216.4 989.333 16218.4 992.266 16223.1 997.2C16230.7 1005.07 16232.5 1008.67 16228.5 1007.07C16226.8 1006.4 16226.7 1006.67 16227.7 1008.8C16228.5 1010.13 16230.7 1012.8 16232.5 1014.53C16236.4 1018.27 16236.9 1020 16234 1020C16231.2 1020 16231.3 1020.53 16236.8 1028.4C16240.3 1033.47 16241.3 1036.27 16240.9 1039.07C16240.5 1042.13 16241.1 1043.2 16243.6 1044.13C16246.8 1045.33 16247.1 1045.73 16247.2 1054C16247.3 1058.13 16248 1059.6 16250.7 1060.93C16253.1 1062.13 16253.9 1063.47 16253.6 1065.87C16253.3 1068 16254.5 1071.07 16256.8 1074L16260.4 1078.8L16256.9 1078C16252.1 1076.8 16252.3 1078.4 16258 1088.53C16263.3 1098 16263.5 1098.67 16260.7 1098.67C16257.7 1098.67 16258.1 1099.87 16264.1 1108.67C16268.4 1114.93 16269.1 1116.8 16267.5 1117.07C16264.4 1117.73 16264.8 1120.27 16269.5 1129.2C16272.3 1134.53 16273.6 1138.93 16273.6 1142.67C16273.5 1147.2 16274 1148.27 16276.8 1149.33C16279.1 1150.27 16280 1151.6 16280 1154.27C16280 1156.13 16283.6 1171.33 16288 1187.87C16292.3 1204.4 16297.1 1223.33 16298.7 1230C16301.6 1242.4 16304 1246.67 16308.3 1246.67C16311.5 1246.67 16311.3 1247.33 16307.2 1252.67C16303.7 1257.2 16303.7 1257.33 16305.9 1263.6C16308.7 1272.27 16311.6 1291.2 16313.9 1316.67C16314.9 1328.4 16316.8 1340.13 16317.9 1342.8C16319.1 1345.6 16320.5 1355.87 16321.3 1366.13C16322.1 1376.4 16324 1393.07 16325.3 1403.33C16326.8 1413.6 16328.8 1429.2 16329.9 1438C16330.9 1446.8 16333.5 1465.33 16335.3 1479.33C16340.4 1516.67 16342.5 1544.13 16343.9 1590.13C16346 1659.33 16342.8 1731.07 16335.3 1787.33C16333.6 1800.53 16330.9 1821.87 16329.3 1834.67C16327.7 1847.47 16325.1 1866.4 16323.2 1876.67C16321.5 1886.93 16318.1 1907.07 16316 1921.33C16313.9 1935.6 16310.7 1953.87 16308.8 1962C16305.5 1976.93 16303.3 1990.53 16295.9 2046.67C16290.5 2087.2 16289.5 2105.33 16291.7 2120C16295.5 2144 16307.9 2188 16325.5 2238.67C16331.3 2255.87 16338.3 2277.2 16340.8 2286C16343.3 2294.8 16348 2309.47 16351.2 2318.67C16359.1 2341.33 16361.9 2356.27 16361.1 2371.33C16360.4 2383.87 16358.4 2389.73 16353.2 2394.53C16349.6 2397.87 16334.7 2401.33 16324 2401.33C16317.2 2401.33 16315.5 2400.8 16312.9 2398.13C16311.3 2396.4 16307.9 2394.53 16305.3 2394C16302.8 2393.47 16298.9 2392.13 16296.8 2391.07C16291.2 2388.13 16279.9 2377.33 16277.7 2372.67C16276.8 2370.4 16273.5 2365.6 16270.5 2362C16257.2 2345.2 16240.1 2304.13 16235.3 2277.47C16231.6 2256.4 16233.5 2209.73 16239.5 2174C16240.5 2167.33 16245.1 2147.2 16249.3 2129.07C16253.7 2110.93 16260.4 2079.47 16264 2059.07C16267.7 2038.67 16277.1 1988.13 16284.8 1946.67C16307.6 1823.33 16308 1820.93 16316.7 1741.33C16320 1711.87 16321.7 1654.8 16320.8 1608.67C16319.7 1558.4 16318.1 1533.6 16314.7 1515.33C16313.2 1508 16311.2 1494.8 16310 1486C16304.1 1442.67 16287.6 1358 16280.4 1335.33C16277.9 1327.2 16272.5 1308 16268.7 1292.67C16256.4 1244.8 16229.7 1168.27 16219.1 1150C16216.9 1146.27 16214.4 1140.27 16213.3 1136.67C16211.3 1129.07 16193.7 1093.07 16179.9 1068.27C16143.9 1003.6 16093.5 930.933 16039.5 865.466C16031.3 855.733 16018.1 839.733 16010.3 830.133C16002.3 820.533 15991.6 806.8 15986.4 799.6C15981.2 792.4 15974.5 784.533 15971.7 782.266C15967.2 778.666 15962.7 772.533 15962.7 769.999C15962.7 768.533 15965.1 769.466 15967.3 772V772ZM370.266 777.333C373.466 777.333 374.533 778 375.2 780.666C375.733 782.666 376.667 783.6 377.867 783.2C387.6 779.466 462.133 846.533 536.666 925.866C556 946.533 565.199 954.666 568.933 954.666C571.733 954.666 570.933 950.533 568 949.733C565.067 948.933 564.667 946.533 566.666 942.533C568.4 939.466 571.466 939.2 572.533 942C572.933 943.333 575.066 944 578.533 944C583.6 944 584.133 944.4 586.799 949.6C590.399 956.666 590 956.4 593.733 956.666C596.666 956.933 596.933 958 595.199 963.733C594.399 966.666 594.533 966.8 599.333 965.866C604.266 964.933 604.4 965.066 603.467 968.533C602.933 970.666 603.333 973.6 604.667 976C606.8 980.267 612.8 984.933 614.267 983.467C615.6 982.133 618.666 985.467 618.666 988.267C618.666 989.734 617.467 991.2 616 991.6C614.533 992 613.333 992.667 613.333 992.933C613.333 993.333 616.4 996.933 620 1000.93C626.666 1008.27 628.4 1011.6 624.666 1010.13C621.466 1008.93 622.399 1011.2 626.799 1015.47C629.066 1017.6 631.466 1020.4 632.266 1021.73C633.333 1023.87 633.199 1024.13 630.799 1023.33C627.066 1022.13 627.199 1022.8 632.932 1031.33C635.865 1035.87 637.732 1040.27 637.599 1042.67C637.599 1045.33 638.265 1046.8 640.132 1047.33C642.666 1048.13 644.399 1052.4 643.999 1056.8C643.332 1062.27 644.132 1064 647.332 1064.8C649.999 1065.47 650.532 1066.13 649.866 1068.8C649.332 1071.07 649.999 1073.33 652.532 1076.53C656.666 1082.13 656.933 1083.2 653.199 1081.33C648.399 1078.67 648.533 1081.2 653.732 1090.67C659.199 1100.8 659.599 1102.27 656.532 1102.93C654.932 1103.2 655.599 1105.07 659.865 1111.33C665.732 1119.87 666.532 1122 663.332 1120.8C660.265 1119.73 660.932 1122.8 665.598 1131.47C668.665 1137.2 669.732 1141.07 669.732 1145.6C669.598 1150.93 670.132 1151.87 672.532 1152.53C674.932 1153.07 675.732 1155.07 677.732 1164.27C682.265 1187.07 698.132 1245.47 700.398 1248.13C701.998 1250 703.598 1250.53 705.598 1249.87C708.532 1248.93 708.398 1249.6 703.465 1256.4C701.065 1259.6 700.932 1260.67 702.399 1266.4C705.465 1278.4 707.999 1295.07 709.998 1318.13C711.198 1330.93 713.065 1343.47 714.132 1346.13C715.198 1348.67 716.932 1360.67 717.999 1372.8C719.065 1384.8 720.532 1398.53 721.332 1403.07C721.998 1407.6 724.132 1423.6 725.998 1438.67C727.865 1453.73 730.798 1476.8 732.531 1490C743.465 1570.53 744.132 1689.73 733.998 1772C725.998 1836.8 720.932 1874.53 717.465 1893.33C715.199 1905.47 712.532 1922.53 711.332 1931.33C710.265 1940.13 707.865 1953.33 705.999 1960.67C702.532 1974.8 700.265 1989.33 692.665 2047.2C686.799 2091.33 685.732 2108 687.865 2122.8C691.198 2145.73 703.198 2187.87 725.065 2252.67C740.932 2299.6 753.332 2339.07 755.465 2349.07C757.732 2359.87 757.865 2379.2 755.865 2387.47C752.931 2398.93 742.398 2404 721.198 2404.4C713.065 2404.53 711.598 2404.13 708.398 2401.07C706.265 2399.2 702.398 2397.2 699.731 2396.8C697.064 2396.27 691.864 2393.6 688.131 2390.93C681.598 2386 673.331 2376.8 673.331 2374.4C673.331 2373.87 670.664 2370 667.331 2365.87C660.931 2358 650.664 2338.67 643.864 2321.6C631.998 2292 628.398 2270.8 629.864 2237.33C631.331 2199.73 634.798 2177.6 646.664 2128C650.931 2110 657.864 2076.93 661.864 2054.53C665.998 2032 674.398 1986.4 680.531 1953.2C703.198 1831.47 704.931 1820 714.131 1735.33C716.931 1708.8 718.131 1617.47 716.131 1574C715.065 1552.67 713.464 1533.73 711.865 1524.67C710.531 1516.67 707.865 1499.73 706.131 1487.2C699.065 1438.4 683.465 1359.73 675.998 1336C673.198 1326.8 668.398 1309.47 665.465 1297.33C653.998 1251.33 626.398 1172 615.065 1152.67C612.932 1148.93 610.398 1143.07 609.465 1139.47C607.598 1132.13 590.131 1096.53 575.065 1069.6C536.665 1000.67 486.664 929.999 420.664 850.666C406.931 834.133 391.464 814.666 386.264 807.466C380.931 800.132 372.931 790.532 368.398 785.999C362.798 780.533 359.998 776.799 359.998 774.666V771.599L363.064 774.399C364.931 776.132 367.864 777.332 370.264 777.332L370.266 777.333ZM8182.4 774.666C8183.47 776.533 8185.47 777.333 8188.53 777.333C8192 777.333 8193.33 778 8194 780C8194.4 781.467 8195.87 782.667 8197.07 782.667C8210.13 782.8 8302.8 866.4 8342.4 914C8391.2 972.533 8443.6 1055.07 8475.07 1123.33C8492.8 1161.73 8502.27 1188.13 8512.8 1228.67C8522.93 1268.27 8526.53 1288.27 8530 1326C8531.07 1338.4 8533.2 1354.67 8534.53 1362C8536 1369.33 8537.47 1379.2 8538 1384C8539.33 1398 8545.33 1438.67 8547.47 1447.87C8548.53 1452.4 8550.27 1465.6 8551.33 1477.2C8552.4 1488.67 8553.87 1502.53 8554.53 1508C8559.6 1547.6 8561.07 1687.33 8556.93 1730.67C8550.27 1800.53 8538.93 1886.4 8532.67 1914C8530.8 1922 8527.47 1941.2 8525.2 1956.67C8523.07 1972 8519.47 1995.2 8517.33 2008C8508 2063.6 8504 2105.73 8506.53 2120.93C8511.07 2148.27 8548.13 2272.13 8566.8 2322.27C8573.73 2341.07 8578.67 2362 8578.67 2372.8C8578.67 2376.13 8577.47 2381.07 8576.13 2383.73C8572.13 2391.47 8561.87 2402.13 8555.46 2405.33C8549.73 2408 8549.2 2408 8542.26 2406C8538.27 2404.8 8533.33 2404.27 8531.46 2404.8C8528.67 2405.47 8528 2405.07 8527.2 2402.13C8526.53 2399.33 8525.6 2398.67 8522 2398.67C8519.33 2398.67 8515.47 2397.07 8511.87 2394.53C8504.4 2389.2 8493.33 2378.53 8493.33 2376.67C8493.33 2375.87 8490 2370.67 8485.86 2365.2C8468.4 2342 8453.07 2303.6 8450.53 2276.13C8448.67 2256.93 8449.6 2190.13 8451.73 2184.93C8452.53 2182.93 8455.06 2172.8 8457.2 2162.27C8459.46 2151.87 8462.53 2139.07 8464 2134C8467.87 2120.53 8476.93 2076.13 8491.2 1998.93C8498.27 1961.73 8507.47 1912.67 8511.87 1890C8525.33 1819.87 8530 1780.13 8533.47 1706C8535.47 1663.87 8534.27 1558.8 8531.47 1534C8526.13 1485.07 8507.87 1384.27 8497.87 1348.67C8495.2 1339.07 8489.87 1318.67 8486 1303.33C8482.13 1287.87 8476.53 1267.47 8473.47 1258C8470.4 1248.4 8465.73 1233.87 8463.2 1225.6C8450.8 1184.8 8410.67 1097.6 8381.73 1048C8360.27 1011.33 8323.87 957.734 8292.13 916.001C8259.6 873.2 8194.8 793.601 8184.13 783.334C8180.8 780.267 8178.67 776.934 8178.67 775.067C8178.67 771.334 8180.13 771.067 8182.4 774.667V774.666ZM22422.7 789.866C22424.3 791.733 22427.6 793.6 22429.9 794.133C22440.1 796.4 22469.7 814.933 22496 835.733C22520.9 855.6 22546.8 884.533 22564 912C22578.8 935.6 22593.6 970 22597.9 990.933C22604.1 1021.47 22608 1078.4 22608 1142.67C22608 1232.27 22602.8 1299.33 22590 1376.67C22584.1 1412.67 22566.9 1500.93 22559.2 1535.33C22549.5 1578.67 22543.1 1612.4 22538.7 1643.47C22530.8 1699.73 22526.7 1717.73 22520.4 1722.67C22517.3 1725.07 22517.1 1725.87 22518.4 1728.13C22519.7 1730.13 22519.7 1730.67 22518.1 1730.67C22514.8 1730.67 22512.9 1726.93 22513.7 1721.33C22514.4 1716.4 22514.1 1716 22511.2 1716C22502 1716 22502.1 1690 22511.3 1632C22514.5 1612.13 22522.9 1544.53 22527.3 1504C22529.6 1483.47 22538.5 1421.6 22542.1 1402.67C22543.3 1396.4 22547.9 1380.4 22552.3 1366.93C22563.7 1331.73 22572 1289.2 22575.3 1248C22580.5 1184.93 22580.5 1058.53 22575.2 1022.93C22570 988.267 22552.4 944.534 22530.5 912.667C22511.5 884.667 22494.4 865.867 22454.4 828.267C22428.8 804.401 22416 790.8 22416 787.867C22416 785.601 22419.6 786.667 22422.7 789.867L22422.7 789.866ZM30247.3 792.133C30254.8 794.8 30260.5 797.866 30263.7 800.933C30267.6 804.533 30269.3 805.333 30272.3 804.8C30275.1 804.266 30276.3 804.666 30277.3 806.533C30278 808 30284 812.266 30290.5 816.266C30319.6 833.6 30368.8 885.867 30388 919.733C30395.1 932.4 30407.5 960.8 30412.9 977.2C30424.3 1010.93 30426 1036.27 30424.9 1152C30424 1244.13 30422.3 1282.4 30416.5 1326.67C30410.5 1374 30388.1 1492.53 30371.3 1566.53C30363.5 1601.2 30362.9 1604.8 30358 1643.33C30352.4 1686.67 30344.7 1720.93 30339.3 1725.33C30334.9 1728.93 30324.4 1711.6 30323.1 1698.27C30322.3 1690 30325.3 1660.13 30330 1631.33C30334.8 1602.4 30336.7 1588 30343.3 1529.33C30354.7 1431.2 30358.8 1407.33 30371.3 1368.4C30380.4 1339.87 30385.2 1318 30390 1281.2C30400.7 1201.47 30401.3 1058.27 30391.5 1008C30389.1 996.4 30382.4 976.133 30375.5 960.133C30356.4 916 30322.8 872.133 30276.4 830.666C30238.9 797.066 30233.3 791.867 30233.3 789.866C30233.3 787.333 30234.3 787.466 30247.3 792.133ZM6827.47 797.866C6841.6 800.533 6892.67 836.666 6918 862C6953.47 897.6 6983.2 948.399 6993.33 991.2C7000.4 1020.93 7004 1073.47 7004 1148C7004 1243.2 6999.47 1302.4 6986 1382.13C6980.27 1416.53 6962.8 1506.8 6956.53 1534.67C6943.47 1592.8 6939.33 1614.93 6934 1654C6930 1683.73 6924.93 1710.8 6921.87 1718.13C6920.8 1720.93 6918.27 1724.67 6916.27 1726.27C6913.47 1728.67 6913.07 1729.6 6914.4 1730.93C6916.27 1732.8 6916.53 1734.67 6914.8 1734.67C6911.33 1734.67 6909.07 1730 6909.87 1724.53C6910.53 1719.6 6910.27 1719.07 6908.13 1719.6C6904.67 1720.53 6902.93 1717.47 6901.2 1707.07C6899.47 1696.27 6901.2 1676.8 6908 1632.67C6911.6 1609.47 6917.07 1565.73 6924 1505.33C6926.67 1481.47 6934.4 1428.8 6938.13 1407.33C6939.33 1400.67 6943.87 1384.8 6948.13 1371.73C6959.2 1338.8 6969.07 1288.4 6972 1250C6975.87 1198.67 6976.93 1122.8 6974.67 1069.33C6972.8 1026.4 6970.26 1010.93 6960.66 983.999C6940.93 928.133 6915.33 892.266 6854.27 834.799C6824.93 807.333 6811.33 792.799 6812.8 790.533C6813.2 789.866 6815.47 790.933 6818 793.066C6820.4 795.199 6824.67 797.466 6827.46 797.866H6827.47ZM14645.5 796.133C14652 798.666 14657.9 802 14660.5 804.666C14664 808.133 14665.7 808.933 14668.5 808.4C14671.2 807.866 14672.7 808.4 14674.1 810.533C14675.2 812 14680.4 815.733 14685.7 818.8C14700.1 827.2 14709.3 834.933 14731.3 857.466C14770 897.066 14785.7 920.266 14802.7 962.666C14819.7 1005.33 14821.5 1021.2 14821.5 1132C14821.5 1267.47 14817.3 1317.6 14797.2 1426.67C14790.4 1462.93 14772.3 1551.2 14766.5 1574.67C14763.6 1586.67 14759.7 1607.33 14757.9 1620.67C14756.1 1633.87 14753.3 1653.33 14751.9 1664C14746.8 1700.67 14739.1 1729.33 14734.3 1729.33C14729.9 1729.33 14722.3 1716.67 14719.9 1705.47C14718.4 1698.27 14720.5 1671.87 14724.7 1645.33C14730.4 1609.2 14733.9 1583.33 14740 1530C14751.2 1432.93 14757.1 1400.93 14770.7 1362C14778.9 1338.27 14786.8 1290.27 14791.6 1233.73C14793.3 1211.87 14793.9 1190.67 14794 1134C14794 1040.8 14792.1 1020.67 14780.4 986C14761.3 929.867 14725.9 881.333 14663.3 825.6C14641.1 805.866 14629.3 794.666 14629.3 793.066C14629.3 790.933 14634.8 792 14645.5 796.133ZM20949.7 829.333C20953.2 831.466 20962.5 838.933 20970.7 845.866C20988.7 861.199 21004.9 872.266 21024.5 882.266C21043.2 891.733 21050.1 896.399 21052.7 901.333C21054.4 904.799 21054.5 905.866 21052.8 909.733C21050.4 915.733 21041.2 923.333 21032.1 926.933C21021.6 931.199 21000.1 931.199 20988.7 926.933C20967.2 919.066 20943.6 893.999 20931.9 866.533C20928.1 858.133 20927.5 854.933 20927.5 845.599L20927.3 834.533L20932.3 829.866C20938.4 824.266 20941.7 824.133 20949.7 829.333V829.333ZM28767.9 828.933C28771.2 830.8 28780.4 838 28788.4 844.8C28806.9 860.667 28821.9 870.667 28843.3 881.867C28874.4 898 28878.4 903.333 28867.7 915.333C28853.1 932.133 28823.6 935.466 28798.9 923.066C28776.1 911.6 28748.4 872.4 28745.9 848.133C28744.8 838.533 28746.7 833.333 28752.5 828.666C28757.9 824.4 28760.4 824.533 28767.9 828.933ZM5349.07 834.933C5353.47 838.133 5362.93 845.733 5370.27 851.733C5386.27 865.466 5400.67 875.066 5417.33 883.466C5436.67 893.066 5445.87 899.333 5448.8 904.667C5451.2 909.2 5451.2 909.467 5448.67 914.133C5439.33 931.333 5407.6 939.066 5383.87 929.867C5358.93 920.133 5331.87 887.6 5324.53 858.8C5321.47 846.266 5322.53 839.2 5328.53 833.733C5335.07 827.733 5339.2 828 5349.07 834.933ZM13166.4 833.6C13169.9 835.866 13178.4 842.8 13185.3 848.666C13202.7 863.6 13220.1 875.333 13240.9 886C13270.9 901.333 13275.1 907.733 13262.9 919.867C13259.3 923.467 13253.5 927.6 13249.9 929.2C13237.2 934.933 13217.1 935.066 13202.7 929.867C13183.3 922.667 13161.5 899.867 13149.3 874C13139.7 853.867 13139.3 840.133 13148.1 832.8C13153.6 828.133 13158.8 828.4 13166.4 833.6V833.6ZM922.533 874.266C916 881.2 914.533 883.333 916.266 883.733C917.6 884 921.2 882.399 924.533 880.133C934.933 872.933 935.066 873.066 934.666 894C934.399 910.8 927.999 962.933 920.666 1008.67C918.799 1019.6 916.532 1037.07 915.332 1047.33C913.332 1066.4 910.932 1076 907.199 1080.27C905.6 1081.87 905.333 1083.87 905.866 1086.93C908.533 1099.6 908.533 1099.47 903.466 1105.07C900.799 1108 898.666 1110.8 898.666 1111.33C898.666 1112 899.066 1112 899.599 1111.6C901.199 1109.87 903.999 1113.73 903.999 1117.87C903.999 1121.33 899.733 1130.67 898.266 1130.67C897.866 1130.67 897.733 1128.4 897.866 1125.73C898 1122 897.466 1120.67 895.733 1120.27C892.533 1119.6 892.666 1122.67 896.133 1130.8C898.933 1137.2 898.933 1137.6 896.666 1142.67C894.933 1146.4 894.533 1149.87 894.933 1154.93L895.6 1161.87L892.533 1158.13C888.533 1153.6 888.399 1147.73 892.133 1140.67L894.933 1135.33L890.933 1139.2C888.666 1141.33 885.999 1144.8 884.933 1146.93C883.199 1150.4 883.333 1151.73 885.599 1159.07C888.666 1169.2 889.066 1175.2 886.533 1178.13C885.466 1179.33 880.8 1182.13 876.133 1184.27C867.733 1188 867.733 1188.13 868.666 1192.4C871.333 1204.13 871.599 1207.2 870.533 1212.67C869.199 1220 866.133 1224.8 861.599 1227.07C858.399 1228.53 858.133 1229.33 857.999 1237.33C857.999 1244.93 857.199 1247.33 852.133 1256.67C848.933 1262.53 844.533 1270.8 842.399 1274.93C837.999 1283.33 834.666 1285.87 834.666 1280.8C834.666 1277.6 831.466 1275.33 829.199 1276.8C828.533 1277.2 827.999 1278.67 827.999 1280.13C827.999 1283.87 824.799 1283.2 819.332 1278.53C815.999 1275.6 814.666 1273.33 814.666 1270.53C814.666 1268.27 813.466 1264.13 811.999 1261.2C807.599 1252.67 810.933 1250.53 817.599 1257.6L821.732 1262L820.799 1253.33C819.599 1242.67 817.599 1238.13 813.599 1237.6C809.999 1237.07 809.866 1238.67 813.332 1243.07C816.266 1246.8 816.799 1249.33 814.532 1249.33C811.466 1249.33 807.732 1246.27 805.999 1242.27C804.399 1238.53 804.532 1237.47 807.466 1232C811.333 1224.8 811.599 1220.93 808.399 1221.6C806.666 1221.87 805.999 1223.33 805.999 1226.4C805.999 1231.73 804.666 1231.87 801.999 1226.67C799.066 1220.93 799.332 1213.2 802.666 1212.4C805.199 1211.73 805.066 1211.47 801.866 1207.2C797.333 1201.2 794.799 1194.13 794.666 1186.67C794.666 1178.4 792.266 1170.67 789.999 1170.67C786.933 1170.67 787.599 1168.93 792.266 1165.07L796.666 1161.47L792.533 1161.33C788.533 1161.33 788.399 1161.07 788.399 1156C788.399 1153.2 787.333 1149.2 786.133 1147.47C783.333 1142.93 783.466 1139.6 786.666 1136.67C790.133 1133.6 789.999 1133.07 785.866 1128C782.133 1123.73 782.533 1122 787.333 1121.07C789.466 1120.53 788.8 1119.87 784.4 1118.13C777.866 1115.33 777.2 1114 781.866 1112.8C786.8 1111.6 788 1105.33 783.333 1105.33C780.266 1105.33 779.6 1101.07 778.933 1077.6C778.4 1053.2 779.333 1048.4 783.2 1055.47C785.2 1059.33 785.2 1059.2 785.333 1050.13V1040.93L780.666 1041.73L776 1042.53L779.466 1037.87C781.866 1034.8 782.799 1032.27 782.266 1029.87C781.733 1026.53 781.866 1026.53 786.266 1027.33L790.799 1028.13L789.866 1023.47C789.066 1018.93 789.199 1018.67 792.666 1018.67C795.199 1018.67 797.865 1017.07 800.799 1014C805.865 1008.67 807.465 1008.27 808.398 1012.13C809.332 1015.73 813.865 1015.07 814.398 1011.2C814.665 1009.6 813.332 1006.53 811.465 1004.27C806.532 998.535 807.198 998.001 813.865 1002.67C820.665 1007.2 823.332 1007.87 821.999 1004.27C821.599 1003.07 820.798 1000.13 820.398 998.001C819.598 994.267 819.732 994.134 821.999 996.001C824.932 998.401 831.999 1008 831.999 1009.6C831.999 1010.13 830.265 1010.67 827.999 1010.67C825.066 1010.67 821.998 1012.53 816.665 1017.33C809.465 1023.87 806.665 1024.67 806.665 1020.53C806.665 1017.73 801.598 1018.27 799.998 1021.47C799.198 1022.93 798.932 1026 799.332 1028.27C800.265 1032.13 800.132 1032.27 796.799 1031.73C793.332 1031.07 792.132 1032.4 794.665 1034C795.465 1034.4 795.999 1035.73 795.999 1036.8C795.999 1038.27 795.465 1038.4 793.465 1037.33C788.665 1034.8 787.732 1036 791.199 1040.13C793.065 1042.4 794.665 1045.47 794.665 1047.07C794.665 1050.93 797.465 1048.13 799.465 1042.27C800.665 1038.67 801.598 1038 805.732 1037.6C808.399 1037.33 810.799 1036.4 810.932 1035.6C810.932 1034.67 811.199 1033.33 811.199 1032.67C811.599 1029.73 813.599 1028 816.799 1028C820.266 1028 820.799 1026.27 818.666 1020.8C816.932 1016.27 819.066 1016.27 825.599 1020.67C831.599 1024.67 833.332 1024.93 832.399 1021.33C831.466 1018.13 834.132 1014.67 837.466 1014.67C839.333 1014.67 840.533 1012.53 842.666 1005.47C846.132 993.866 852.533 987.333 859.332 988.4C863.199 989.066 863.466 988.8 863.066 986.133C862.666 984.266 863.733 981.6 865.599 979.2C872.933 970 872.799 970.4 868.932 971.333C866.265 972 865.332 971.733 865.332 970.4C865.332 967.2 868.532 964 872.666 962.933C874.932 962.267 876.799 960.933 877.066 959.867C877.333 958.133 872.132 948.667 867.199 941.733C865.066 938.8 865.066 938.666 870.132 939.066L875.199 939.333L876.399 932.267C877.466 925.466 877.866 924.933 883.599 922.4C890.532 919.333 892.932 920.133 886.799 923.6C881.733 926.533 881.466 928 886.4 927.866C893.733 927.6 896.533 926.133 897.599 921.467C899.199 915.866 913.066 901.333 917.066 901.333C920.533 901.333 920.533 901.2 918.4 896.667C917.6 894.8 916 893.467 914.8 893.6C913.733 893.867 909.333 898.4 905.2 903.867C896 915.867 893.733 917.467 892.533 912.667C891.333 907.867 892.8 905.333 896.8 905.333C900 905.333 900.266 905.066 899.466 900.8C898.666 896.533 898.8 896.134 902.267 895.733C905.6 895.333 905.999 894.8 905.999 890.4C906.133 886.133 907.199 884.133 912.666 878.533C920.133 870.934 929.467 863.6 930.4 864.667C930.8 865.067 927.2 869.333 922.533 874.267V874.266ZM24351.9 874.133C24355.9 877.466 24357.3 881.333 24354.7 881.333C24352.3 881.333 24353.3 884.933 24356.4 887.2C24359.2 889.333 24358.9 889.333 24350.7 889.2C24337.1 888.933 24337.1 888.933 24338 892.266C24339.1 895.2 24339.2 895.2 24332.1 892.4C24330.7 891.733 24330.7 892.133 24332 894.533C24334 898.4 24332.8 899.466 24328.7 897.6C24325.5 896.133 24325.3 896.266 24326.1 899.2C24326.5 900.933 24326 904.533 24324.8 907.2C24323.7 909.866 24323.1 912 24323.5 912C24323.7 912 24327.6 908.8 24331.9 904.8C24344.1 893.6 24350.8 890.933 24355.3 895.6C24358.1 898.399 24357.7 906.266 24352.8 940C24350.9 952.8 24346.9 981.066 24344 1002.67C24337.6 1047.73 24334.4 1064.4 24330.7 1072.93C24327.5 1080.27 24327.5 1081.33 24330.3 1089.33C24332.4 1095.33 24332.4 1095.87 24330.3 1099.2C24328.5 1101.6 24326.8 1102.67 24323.9 1102.67H24319.9L24322.7 1105.6C24325.9 1109.07 24326.1 1115.6 24323.5 1123.2C24322.5 1126.13 24322 1130.67 24322.3 1133.47C24322.8 1137.2 24322.1 1139.73 24319.5 1144.4C24317.5 1147.6 24314.4 1155.73 24312.5 1162.13C24310.7 1168.67 24308.7 1174.53 24308 1175.33C24306.4 1177.6 24302.7 1189.6 24302.7 1192.93C24302.7 1196.53 24298.7 1197.2 24296 1194C24294.7 1192.4 24294.9 1191.07 24297.9 1186.67C24302 1180.4 24302 1180 24298.9 1180C24292.9 1180 24289.9 1188 24292.7 1196C24295.7 1204.67 24295.2 1211.07 24291.2 1216C24286.5 1221.47 24281.3 1224 24274.7 1224C24271.7 1224 24269.3 1224.4 24269.3 1225.07C24269.3 1225.6 24270.8 1228.27 24272.7 1231.07C24275.9 1235.6 24277.5 1236.53 24284.7 1237.6C24287.1 1238 24286.9 1238.4 24283.2 1242.27C24280.9 1244.67 24277.3 1246.93 24275.2 1247.33C24273.1 1247.87 24270.7 1248.4 24269.7 1248.67C24268.9 1248.93 24267.9 1251.87 24267.5 1255.2C24267.1 1258.53 24266.3 1264.13 24265.9 1267.47C24264.7 1277.33 24249.7 1291.2 24247.2 1284.8C24246.3 1282.27 24248.9 1277.33 24251.3 1277.33C24254.4 1277.33 24255.2 1274.4 24252.7 1272.4C24251.2 1271.47 24248.3 1270.67 24246.1 1270.67C24239.9 1270.67 24238.3 1269.07 24239.3 1264C24240.1 1260.13 24240 1259.87 24237.1 1260.27C24234.1 1260.67 24234 1260.4 24234.4 1253.47C24234.7 1248.13 24234.4 1246.53 24233.1 1246.93C24224.7 1250.13 24224.5 1250 24229.7 1244.13C24236.1 1237.07 24236.3 1234 24230.1 1235.2L24225.7 1236L24229.5 1228.53C24233.9 1219.73 24234.3 1216.93 24231.1 1217.6C24229.2 1218 24228.7 1219.33 24228.8 1223.33L24229.1 1228.53L24225.9 1224.93C24221.6 1220 24221.3 1210.8 24225.3 1209.73C24228.7 1208.8 24228.7 1208.53 24225.3 1204.27C24223.7 1202.27 24222.7 1199.33 24222.9 1197.47C24223.3 1194.53 24222.7 1193.87 24219.7 1193.6C24214.9 1193.07 24215.1 1191.2 24220 1188.13C24224.4 1185.6 24224 1184 24219.1 1184C24216.4 1184 24216 1183.33 24216 1178.93C24215.9 1176.27 24215.1 1172.53 24214 1170.67C24211.5 1166.27 24211.5 1162.13 24214 1160C24216.9 1157.6 24216.4 1154.67 24212 1148C24207.6 1141.33 24206.9 1134.8 24210 1129.33C24212.7 1124.8 24212.5 1124.27 24208.7 1125.07C24204.8 1125.73 24204.5 1124.13 24206.8 1117.47C24208 1114 24207.9 1112.8 24206.1 1110.8C24204.9 1109.6 24203.5 1105.33 24202.7 1101.33C24201.2 1093.73 24201.1 1051.87 24202.4 1046.93C24204.1 1041.07 24206 1044 24205.7 1052C24205.1 1066.53 24208.8 1059.73 24210.5 1043.33C24211.2 1036 24212.4 1031.07 24213.9 1029.47C24216.5 1026.53 24216.5 1021.73 24214 1017.33C24211.3 1012.67 24211.6 1008.27 24214.5 1006.67C24218.4 1004.67 24218.8 1004.93 24217.9 1008.67C24217.1 1012 24221.6 1021.33 24224.1 1021.33C24224.8 1021.33 24225.3 1017.73 24225.3 1013.33V1005.2L24229.7 1006C24233.7 1006.8 24234.8 1006.27 24238.8 1002.13C24241.2 999.466 24243.7 997.333 24244.3 997.333C24245.9 997.333 24249.6 1005.2 24248.7 1006.67C24248.1 1007.6 24246.9 1007.47 24245.2 1006.67C24243.2 1005.6 24242.7 1005.73 24242.7 1007.2C24242.7 1008.27 24243.3 1009.6 24244 1010C24246.3 1011.47 24244.1 1013.07 24241.1 1012.27C24238.5 1011.6 24238.3 1012 24239.2 1016.13C24240 1020.8 24243.7 1026.8 24246.3 1027.6C24247.1 1027.87 24248.1 1025.33 24248.7 1021.47C24249.6 1014.13 24250.9 1012.53 24256 1011.73C24258 1011.47 24259.5 1010.27 24259.7 1008.67C24260.4 1004.93 24263.5 1002.93 24267.5 1003.73C24270.5 1004.27 24270.8 1004 24270 1001.47C24268.1 995.599 24280 975.999 24285.5 975.999C24288.4 975.999 24290.7 972.132 24290.7 967.065C24290.7 962.132 24292.8 959.999 24297.6 959.999C24300.9 959.999 24301.3 959.466 24301.3 955.999C24301.3 953.732 24304 945.999 24307.3 938.799C24313.7 924.799 24314.5 920.266 24311.3 914.132C24308.7 909.066 24308.7 909.066 24314 910.133C24318.7 910.933 24318.7 910.933 24317.3 907.466C24315.7 903.066 24316.7 900.533 24322.3 894.266C24325.7 890.399 24326.5 888.533 24325.9 885.999C24325.1 882.932 24325.5 882.666 24329.7 882.666C24333.9 882.666 24334.5 882.266 24334.9 878.933C24335.2 875.999 24336 875.333 24339.2 875.333C24341.3 875.199 24343.7 874.266 24344.5 872.933C24346.4 869.999 24347.1 869.999 24351.9 874.133V874.133ZM21540.1 886.266C21551.1 896.8 21560.4 910.933 21570.1 931.333C21588.8 970.8 21594.4 1002 21592.9 1056.67C21591.2 1117.87 21582.9 1187.47 21568.7 1262C21565.3 1278.8 21560.9 1303.73 21558.7 1317.33C21556.5 1330.93 21552.7 1351.33 21550.1 1362.67C21541.9 1399.73 21541.3 1411.07 21547.5 1416.13C21558.7 1425.33 21573.6 1486.67 21573.9 1524C21574 1543.47 21573.2 1545.47 21562.3 1551.47C21555.7 1555.07 21554.4 1555.33 21540.7 1555.33C21526.5 1555.33 21525.6 1555.2 21515.6 1550.4C21502.1 1544 21492.4 1534.27 21486.1 1520.93C21480 1507.87 21478.1 1499.07 21478.1 1483.33C21478.3 1467.2 21480.7 1456.67 21488.7 1437.07C21498.4 1413.33 21500.9 1401.6 21505.3 1356.93C21507.6 1334.8 21510.3 1309.73 21511.3 1301.33C21513.5 1283.47 21515.6 1261.07 21516.7 1241.33C21517.2 1232.8 21518.8 1223.2 21520.7 1216.67C21522.4 1210.8 21525.3 1194 21527.3 1179.33C21530.9 1152.4 21532.8 1140.53 21533.9 1138.8C21536.4 1134.8 21539.6 1091.73 21541.3 1040C21543.2 981.733 21541.9 958 21534.7 924.934C21531.7 911.2 21528.7 895.333 21528 889.734C21526 874.134 21527.3 873.867 21540.1 886.267V886.266ZM29359.9 886.533C29382.9 909.866 29399.9 947.2 29408.3 993.333C29410.7 1006.67 29411.1 1013.87 29411.1 1048.67C29411.2 1112.53 29403.7 1179.87 29386.8 1266.67C29383.9 1281.73 29379.1 1308.67 29376 1326.67C29372.9 1344.67 29368.4 1368.53 29365.9 1379.87C29362.9 1393.07 29361.6 1402 29362.1 1404.53C29362.5 1406.8 29365.5 1413.73 29368.7 1420C29377.9 1438.13 29387.6 1473.07 29393.3 1508.13C29397.3 1532.93 29397.2 1534.8 29390 1542.53C29374.4 1559.2 29355.7 1560.67 29331.1 1547.2C29307.1 1534 29297.3 1516.53 29297.2 1486.53C29297.1 1470 29300 1456 29307.2 1438.13C29313.7 1421.87 29318.3 1404.53 29320 1388.67C29320.8 1381.33 29324.1 1352.67 29327.3 1324.8C29330.7 1297.07 29334 1264 29334.8 1251.47C29335.9 1235.07 29337.2 1225.73 29339.5 1218C29341.2 1212.13 29344.4 1193.47 29346.7 1176.67C29348.9 1159.73 29351.6 1142.93 29352.7 1139.33C29356.4 1125.47 29359.5 1083.87 29360.8 1024.67C29361.9 976.133 29360.4 956.133 29353.3 924C29350.4 910.4 29347.6 894.4 29347.1 888.266C29346 874.266 29347.5 874 29359.9 886.533H29359.9ZM13758.1 892.266C13769.2 903.733 13775.3 912.8 13784.1 931.333C13802.8 970.4 13808.9 1005.73 13807.6 1066C13806.1 1128.13 13799.2 1184.27 13781.5 1279.33C13777.7 1299.07 13772.7 1327.73 13770 1342.8C13767.3 1357.87 13763.7 1376.8 13762 1384.8C13757.2 1405.73 13757.5 1408 13765.9 1425.6C13776.9 1448.53 13789.9 1499.6 13791.6 1527.47L13792.4 1539.6L13786.7 1545.87C13783.5 1549.33 13777.3 1553.73 13772.5 1556.13C13764.8 1560 13763.2 1560.27 13755.1 1559.73C13733.7 1558.13 13708.3 1541.33 13699.7 1523.33C13694.5 1512.13 13692.9 1501.87 13693.7 1484.67C13694.4 1468.53 13696.7 1459.2 13705.3 1436.8C13712.3 1418.53 13715.2 1404.93 13718 1378C13719.2 1366.27 13722.3 1339.6 13724.8 1318.67C13727.3 1297.73 13730.3 1268.93 13731.3 1254.67C13732.7 1237.6 13734.3 1225.73 13736 1220C13737.5 1215.2 13739.9 1202.67 13741.3 1192C13746.1 1157.87 13748 1146.13 13750 1137.33C13755.6 1110.93 13759.6 997.067 13756 962.8C13755.2 956 13752 937.6 13748.7 921.867C13743.1 895.333 13741.5 882.934 13743.5 880.933C13744.9 879.467 13748.4 882.133 13758.1 892.267L13758.1 892.266ZM5936.27 888.933C5953.73 905.733 5971.47 939.333 5981.47 974.666C5996.27 1027.2 5990 1135.2 5964 1270.67C5961.07 1285.73 5956.93 1309.2 5954.67 1323.07C5952.4 1336.8 5948.4 1357.2 5945.87 1368.4C5943.33 1379.47 5940.8 1394.13 5940.4 1400.93L5939.6 1413.07L5945.07 1421.2C5958.27 1441.07 5969.6 1488.93 5969.87 1526.27L5970 1545.2L5966.13 1549.2C5950.13 1565.87 5914.8 1562 5894.67 1541.47C5881.2 1527.6 5874.67 1510.13 5874.67 1487.6C5874.67 1471.2 5877.2 1459.73 5885.47 1439.33C5895.2 1414.8 5896.93 1406.27 5902 1357.33C5904.53 1332.8 5907.6 1305.2 5908.67 1296C5909.73 1286.8 5911.47 1267.6 5912.53 1253.33C5913.87 1235.07 5915.33 1224.8 5917.2 1218.8C5918.8 1214.13 5921.87 1196.8 5924.13 1180.13C5926.27 1163.6 5928.93 1146.67 5930 1142.67C5934.8 1123.6 5937.73 1073.2 5937.73 1011.33C5937.87 959.599 5938 960.933 5929.47 920.266C5923.47 892.399 5922.53 881.333 5926.13 881.333C5927.2 881.333 5931.87 884.799 5936.27 888.933V888.933ZM24308.5 920.266C24309.5 921.733 24309.1 924.133 24307.5 928.399C24303.3 939.466 24268.4 990.4 24259.5 998.666C24255.9 1001.87 24255.7 1002 24253.9 999.466C24251.9 996.533 24251.3 989.333 24253.2 989.333C24253.9 989.333 24255.1 990.266 24256 991.333C24256.9 992.4 24258.4 993.333 24259.3 993.333C24261.3 993.333 24266.7 981.467 24266.7 977.066C24266.7 972.666 24268.7 970.133 24271.3 971.2C24275.5 972.667 24277.3 969.6 24277.3 961.2C24277.3 953.333 24277.3 953.333 24281.3 953.333C24285.9 953.333 24288.3 951.2 24294.5 942.266C24300.3 934 24304 925.467 24304 920.933C24304 916.933 24306.1 916.533 24308.5 920.267V920.266ZM868.133 953.6C869.066 955.333 867.999 957.467 863.333 962.666C860 966.4 857.333 969.866 857.333 970.533C857.333 971.066 858.667 972.133 860.267 972.933C863.066 974.133 862.8 974.666 854 984.133C848.8 989.6 842.8 996.4 840.533 999.2L836.399 1004.53L832.799 1000.67C830.933 998.666 828.666 994.533 827.732 991.733C826.399 987.333 826.532 986.266 828.266 984.4C830.799 982 833.333 983.066 833.333 986.8C833.333 991.333 839.199 990 841.466 984.933C843.066 981.333 844.132 980.533 848.399 980.266C854.932 979.733 854.932 976.399 848.666 970.133C843.066 964.4 842.799 963.466 847.733 964.4C852.133 965.333 854.133 964.266 854.933 960.666C855.333 958.533 856.4 958 859.866 958.266C863.733 958.4 864.133 958.133 863.333 955.6C862.799 954 862.133 951.199 861.733 949.333L860.933 946L863.866 948.666C865.599 950.133 867.466 952.266 868.133 953.6ZM26487.3 968.133C26493.7 973.733 26502.9 988.933 26512 1009.07C26522.3 1031.33 26524.8 1039.33 26523.2 1043.73C26518.9 1056 26495.9 1050.67 26478.5 1033.47C26470.8 1025.73 26469.5 1023.6 26468 1017.07C26465.1 1003.73 26470.3 973.6 26476.8 967.066C26480.8 963.066 26481.6 963.199 26487.3 968.133V968.133ZM18671.7 972.933C18677.3 978.8 18681.3 985.333 18689.5 1002C18702.8 1029.33 18706 1038.8 18703.7 1043.73C18698.8 1053.87 18682.5 1051.87 18665.2 1039.2C18652.3 1029.73 18648 1015.07 18650.5 989.6C18652 975.2 18653.2 970.933 18656.7 967.6C18660.5 963.6 18664.3 964.933 18671.7 972.934L18671.7 972.933ZM3064.53 971.866C3072.53 978.799 3086.4 1003.6 3096.53 1028.8C3102.27 1043.2 3102.4 1045.73 3098 1050C3088.93 1059.2 3059.2 1046.8 3050.4 1030.4C3047.6 1025.2 3047.33 1022.93 3047.33 1004C3047.33 987.2 3047.73 982.133 3049.73 977.066C3053.33 967.866 3058 966.133 3064.53 971.867V971.866ZM10885.9 973.733C10895.7 984 10918.1 1029.6 10919.6 1042.13C10921.7 1059.33 10895.6 1056.67 10875.7 1037.73C10871.3 1033.47 10867.2 1028.93 10866.5 1027.73C10860.9 1017.33 10864.7 980.933 10872.3 971.2C10876 966.533 10879.7 967.2 10885.9 973.733H10885.9ZM17508.9 1108C17517.3 1112.8 17520.7 1117.07 17528.7 1133.33C17541.9 1159.73 17567.6 1223.33 17575.3 1248.4C17581.5 1267.87 17578 1277.87 17562.7 1285.6C17552.5 1290.93 17545.6 1290.53 17533.2 1284.53C17520 1278 17498.1 1256.13 17489.5 1240.8C17470.8 1207.73 17464.3 1140.27 17477.3 1114.8C17483.1 1103.33 17496 1100.67 17508.9 1108H17508.9ZM25324.7 1105.87C25332.4 1109.07 25340.5 1118.93 25348.4 1134.4C25357.1 1151.33 25370.4 1182.67 25382.1 1213.6C25400.8 1263.07 25401.5 1270.27 25387.7 1281.87C25372 1295.33 25353.6 1290.67 25330 1267.47C25311.1 1248.8 25302.9 1234.67 25296.7 1210.13C25289.1 1180.13 25286.5 1141.47 25291.3 1126.53C25297.3 1107.87 25310.1 1099.87 25324.7 1105.87V1105.87ZM1903.73 1110.27C1914.67 1115.47 1920 1124 1936.93 1162.67C1956.67 1207.73 1975.07 1258.13 1974.93 1266.8C1974.67 1281.73 1957.2 1295.33 1941.73 1292.53C1924 1289.47 1895.33 1263.6 1883.2 1239.87C1866.8 1207.33 1861.33 1142.27 1873.07 1119.07C1879.33 1107.07 1890.27 1103.87 1903.73 1110.27H1903.73ZM9720.67 1109.2C9727.33 1112.13 9733.73 1118.53 9739.33 1127.33C9750.93 1146 9783.73 1226.27 9792 1256.53C9794.4 1265.07 9794.53 1267.47 9793.33 1272.27C9790 1284.4 9773.07 1294.8 9760.4 1292.53C9741.47 1289.2 9710.93 1259.73 9699.73 1234C9692.13 1216.67 9686.67 1188.27 9685.73 1161.33C9685.2 1144.93 9685.47 1138.93 9687.07 1132.4C9692.53 1111.47 9705.6 1102.27 9720.67 1109.2V1109.2ZM19505.3 1412.67C19509.1 1415.2 19512.3 1419.2 19514.9 1424.53C19527.5 1449.33 19538.3 1526.8 19533.2 1555.6C19531.3 1566.13 19527.1 1571.07 19517.3 1573.33C19508.7 1575.47 19500.8 1574.27 19490.8 1569.2C19480.5 1564 19472 1554.53 19465.3 1540.67C19458.3 1525.87 19456 1514.4 19456 1492.93C19456 1455.47 19466 1422.8 19480.7 1411.73C19485.3 1408.27 19486.8 1407.87 19492.9 1408.4C19497.7 1408.67 19501.5 1410 19505.3 1412.67V1412.67ZM27324.4 1412.8C27332.1 1418.13 27337.6 1429.73 27342.7 1451.33C27350.5 1485.2 27354 1515.47 27353.1 1541.2C27352.7 1553.2 27351.9 1559.33 27350.1 1562.8C27344.8 1574 27327.1 1577.47 27311.6 1570.4C27296.9 1563.6 27283.6 1545.2 27277.9 1524C27274.8 1513.07 27274.4 1476.13 27277.1 1462C27279.7 1448.53 27283.9 1434.93 27287.5 1427.6C27291.2 1420.4 27299.3 1410.93 27303.3 1409.2C27308.4 1406.93 27318.5 1408.67 27324.4 1412.8V1412.8ZM3896.67 1413.2C3904.27 1416.67 3907.73 1420.53 3912.27 1430C3924.4 1456 3934.53 1532.8 3929.33 1560.13C3926.93 1572.93 3918.67 1578.13 3902.67 1577.07C3886.13 1575.87 3871.47 1564.13 3862 1544.67C3855.47 1531.47 3853.2 1521.6 3852.4 1503.33C3850.93 1469.6 3860.4 1430.27 3873.07 1418.27C3881.2 1410.53 3887.73 1409.07 3896.67 1413.2ZM11715.3 1413.2C11722.9 1416.67 11727.6 1421.6 11731.5 1429.87C11737.5 1442.93 11744.7 1476.8 11747.9 1506.93C11749.7 1524 11749.7 1554.67 11747.9 1562.13C11746 1569.2 11739.6 1575.47 11732.7 1576.8C11706.1 1581.73 11682.1 1560 11673.1 1522.67C11670.5 1511.87 11670.9 1478.27 11673.9 1463.47C11679.3 1436 11686.9 1420.93 11699.3 1413.2C11704.4 1410 11708.5 1410 11715.3 1413.2V1413.2Z" fill="#82351B"/>
</svg>
